<svg width="328" height="37" viewBox="0 0 328 37" fill="none" xmlns="http://www.w3.org/2000/svg">
<path d="M11.4 36H0.216V3.984H29.688V36H18.504V14.064H11.4V36ZM70.2023 19.968C70.2023 24.672 68.7143 28.544 65.7383 31.584C62.3783 35.008 57.9463 36.72 52.4423 36.72C46.9383 36.72 42.5063 35.008 39.1463 31.584C36.1703 28.544 34.6823 24.672 34.6823 19.968C34.6823 15.296 36.1703 11.44 39.1463 8.4C42.5063 4.976 46.9383 3.264 52.4423 3.264C57.9463 3.264 62.3783 4.976 65.7383 8.4C68.7143 11.44 70.2023 15.296 70.2023 19.968ZM52.4423 13.584C50.6823 13.584 49.2903 14.128 48.2663 15.216C47.0503 16.496 46.4423 18.096 46.4423 20.016C46.4423 21.968 47.0503 23.552 48.2663 24.768C49.3543 25.856 50.7463 26.4 52.4423 26.4C54.1383 26.4 55.5303 25.856 56.6183 24.768C57.8343 23.552 58.4423 21.968 58.4423 20.016C58.4423 17.968 57.8343 16.368 56.6183 15.216C55.5303 14.128 54.1383 13.584 52.4423 13.584ZM86.544 36H75.216V3.984H90.576C94.672 3.984 97.792 5.024 99.936 7.104C102.112 9.216 103.2 12.048 103.2 15.6C103.2 19.088 102.144 21.776 100.032 23.664C98.112 25.456 95.488 26.352 92.16 26.352H86.544V36ZM86.544 12.768V18.288H88.512C89.664 18.288 90.528 18 91.104 17.424C91.616 16.976 91.872 16.32 91.872 15.456C91.872 14.592 91.584 13.936 91.008 13.488C90.432 13.008 89.648 12.768 88.656 12.768H86.544ZM124.132 36H112.708V14.112L106.18 14.4V3.984H130.66V14.4L124.132 14.112V36ZM148.104 36V31.344C142.696 31.344 138.696 30.016 136.104 27.36C133.896 25.088 132.792 21.984 132.792 18.048C132.792 14.24 133.912 11.216 136.152 8.976C137.624 7.504 139.448 6.464 141.624 5.856C143.832 5.216 145.992 4.896 148.104 4.896V0.287999H159.288V4.896C164.632 4.96 168.616 6.32 171.24 8.976C173.48 11.248 174.6 14.256 174.6 18C174.6 21.904 173.496 25.024 171.288 27.36C168.792 30.016 164.792 31.344 159.288 31.344V36H148.104ZM158.28 13.632V22.656H158.472C160.424 22.656 161.816 22.256 162.648 21.456C163.448 20.72 163.848 19.6 163.848 18.096C163.848 16.56 163.432 15.424 162.6 14.688C161.832 13.984 160.392 13.632 158.28 13.632ZM149.112 13.632C147 13.632 145.56 13.984 144.792 14.688C143.96 15.424 143.544 16.56 143.544 18.096C143.544 19.6 143.944 20.72 144.744 21.456C145.576 22.256 146.968 22.656 148.92 22.656H149.112V13.632ZM213.687 19.968C213.687 24.672 212.199 28.544 209.223 31.584C205.863 35.008 201.431 36.72 195.927 36.72C190.423 36.72 185.991 35.008 182.631 31.584C179.655 28.544 178.167 24.672 178.167 19.968C178.167 15.296 179.655 11.44 182.631 8.4C185.991 4.976 190.423 3.264 195.927 3.264C201.431 3.264 205.863 4.976 209.223 8.4C212.199 11.44 213.687 15.296 213.687 19.968ZM195.927 13.584C194.167 13.584 192.775 14.128 191.751 15.216C190.535 16.496 189.927 18.096 189.927 20.016C189.927 21.968 190.535 23.552 191.751 24.768C192.839 25.856 194.231 26.4 195.927 26.4C197.623 26.4 199.015 25.856 200.103 24.768C201.319 23.552 201.927 21.968 201.927 20.016C201.927 17.968 201.319 16.368 200.103 15.216C199.015 14.128 197.623 13.584 195.927 13.584ZM222.156 3.984H250.14V36H238.956V14.064H232.236V23.712C232.236 28.128 231.212 31.408 229.164 33.552C227.244 35.536 224.38 36.528 220.572 36.528C218.876 36.528 217.26 36.4 215.724 36.144V27.12C216.204 27.248 216.844 27.312 217.644 27.312C219.084 27.312 220.14 26.992 220.812 26.352C221.708 25.488 222.156 23.872 222.156 21.504V3.984ZM256.575 3.984H267.615V15.36C267.615 17.056 267.423 19.024 267.039 21.264H267.471C268.303 19.056 269.007 17.456 269.583 16.464L276.591 3.984H287.007V36H275.967V25.104C275.967 23.28 276.159 21.312 276.543 19.2H276.111C275.439 21.12 274.735 22.72 273.999 24L266.991 36H256.575V3.984ZM327.499 19.968C327.499 24.672 326.011 28.544 323.035 31.584C319.675 35.008 315.243 36.72 309.739 36.72C304.235 36.72 299.803 35.008 296.443 31.584C293.467 28.544 291.979 24.672 291.979 19.968C291.979 15.296 293.467 11.44 296.443 8.4C299.803 4.976 304.235 3.264 309.739 3.264C315.243 3.264 319.675 4.976 323.035 8.4C326.011 11.44 327.499 15.296 327.499 19.968ZM309.739 13.584C307.979 13.584 306.587 14.128 305.563 15.216C304.347 16.496 303.739 18.096 303.739 20.016C303.739 21.968 304.347 23.552 305.563 24.768C306.651 25.856 308.043 26.4 309.739 26.4C311.435 26.4 312.827 25.856 313.915 24.768C315.131 23.552 315.739 21.968 315.739 20.016C315.739 17.968 315.131 16.368 313.915 15.216C312.827 14.128 311.435 13.584 309.739 13.584Z" fill="#A89365"/>
</svg>
